<?xml version="1.0" encoding="UTF-8" standalone="no"?>
<!DOCTYPE svg PUBLIC "-//W3C//DTD SVG 1.1//EN"
 "http://www.w3.org/Graphics/SVG/1.1/DTD/svg11.dtd">
<!-- Generated by graphviz version 2.38.0 (20140413.2041)
 -->
<!-- Title: G Pages: 1 -->
<svg width="429pt" height="288pt"
 viewBox="0.00 0.00 429.48 288.00" xmlns="http://www.w3.org/2000/svg" xmlns:xlink="http://www.w3.org/1999/xlink">
<g id="graph0" class="graph" transform="scale(0.630197 0.630197) rotate(0) translate(4 453)">
<title>G</title>
<polygon fill="white" stroke="none" points="-4,4 -4,-453 677.5,-453 677.5,4 -4,4"/>
<g id="clust1" class="cluster"><title>cluster_0</title>
<polygon fill="#000000" fill-opacity="0.058824" stroke="#000000" stroke-opacity="0.058824" points="88.4682,-8 88.4682,-441 662.085,-441 662.085,-8 88.4682,-8"/>
<text text-anchor="middle" x="375.276" y="-425.8" font-family="Times,serif" font-size="14.00">Test</text>
</g>
<g id="clust2" class="cluster"><title>cluster_1</title>
<polygon fill="#000000" fill-opacity="0.058824" stroke="#000000" stroke-opacity="0.058824" points="99.8835,-16 99.8835,-410 650.669,-410 650.669,-16 99.8835,-16"/>
<text text-anchor="middle" x="375.276" y="-394.8" font-family="Times,serif" font-size="14.00">TorXakis</text>
</g>
<g id="clust3" class="cluster"><title>cluster_2</title>
<polygon fill="#000000" fill-opacity="0.058824" stroke="#000000" stroke-opacity="0.058824" points="306.785,-304 306.785,-379 517.967,-379 517.967,-304 306.785,-304"/>
<text text-anchor="middle" x="412.376" y="-363.8" font-family="Times,serif" font-size="14.00">Examples</text>
</g>
<!-- u0 -->
<g id="node1" class="node"><title>u0</title>
<ellipse fill="#bbffbb" stroke="black" stroke-width="0" cx="38.3814" cy="-330" rx="27" ry="18"/>
<text text-anchor="middle" x="38.3814" y="-326.3" font-family="Times,serif" font-size="14.00">Sort</text>
</g>
<!-- u8 -->
<g id="node2" class="node"><title>u8</title>
<ellipse fill="#ffffbb" stroke="black" stroke-width="2" cx="412.381" cy="-258" rx="44.393" ry="18"/>
<text text-anchor="middle" x="412.381" y="-254.3" font-family="Times,serif" font-size="14.00">TorXakis</text>
</g>
<!-- u3 -->
<g id="node4" class="node"><title>u3</title>
<ellipse fill="#bbbbff" stroke="black" stroke-width="0" cx="412.381" cy="-186" rx="32.4942" ry="18"/>
<text text-anchor="middle" x="412.381" y="-182.3" font-family="Times,serif" font-size="14.00">Tester</text>
</g>
<!-- u8&#45;&gt;u3 -->
<g id="edge10" class="edge"><title>u8&#45;&gt;u3</title>
<path fill="none" stroke="black" d="M412.381,-239.697C412.381,-231.983 412.381,-222.712 412.381,-214.112"/>
<polygon fill="black" stroke="black" points="415.881,-214.104 412.381,-204.104 408.881,-214.104 415.881,-214.104"/>
</g>
<!-- u2 -->
<g id="node3" class="node"><title>u2</title>
<ellipse fill="#bbbbff" stroke="black" stroke-width="0" cx="412.381" cy="-42" rx="34.394" ry="18"/>
<text text-anchor="middle" x="412.381" y="-38.3" font-family="Times,serif" font-size="14.00">Action</text>
</g>
<!-- u4 -->
<g id="node5" class="node"><title>u4</title>
<ellipse fill="#bbbbff" stroke="black" stroke-width="0" cx="412.381" cy="-114" rx="57.3905" ry="18"/>
<text text-anchor="middle" x="412.381" y="-110.3" font-family="Times,serif" font-size="14.00">Specification</text>
</g>
<!-- u3&#45;&gt;u4 -->
<g id="edge2" class="edge"><title>u3&#45;&gt;u4</title>
<path fill="none" stroke="black" d="M412.381,-167.697C412.381,-159.983 412.381,-150.712 412.381,-142.112"/>
<polygon fill="black" stroke="black" points="415.881,-142.104 412.381,-132.104 408.881,-142.104 415.881,-142.104"/>
</g>
<!-- u5 -->
<g id="node6" class="node"><title>u5</title>
<ellipse fill="#bbbbff" stroke="black" stroke-width="0" cx="208.381" cy="-114" rx="67.6881" ry="18"/>
<text text-anchor="middle" x="208.381" y="-110.3" font-family="Times,serif" font-size="14.00">SUTConnection</text>
</g>
<!-- u3&#45;&gt;u5 -->
<g id="edge3" class="edge"><title>u3&#45;&gt;u5</title>
<path fill="none" stroke="black" d="M385.292,-175.705C352.851,-164.573 297.878,-145.71 257.805,-131.959"/>
<polygon fill="black" stroke="black" points="258.812,-128.605 248.218,-128.669 256.541,-135.226 258.812,-128.605"/>
</g>
<!-- u7 -->
<g id="node8" class="node"><title>u7</title>
<ellipse fill="#bbbbff" stroke="black" stroke-width="0" cx="579.381" cy="-114" rx="41.6928" ry="18"/>
<text text-anchor="middle" x="579.381" y="-110.3" font-family="Times,serif" font-size="14.00">Reporter</text>
</g>
<!-- u3&#45;&gt;u7 -->
<g id="edge4" class="edge"><title>u3&#45;&gt;u7</title>
<path fill="none" stroke="black" d="M437.745,-174.369C465.199,-162.861 509.297,-144.377 540.998,-131.089"/>
<polygon fill="black" stroke="black" points="542.536,-134.239 550.405,-127.146 539.83,-127.784 542.536,-134.239"/>
</g>
<!-- u4&#45;&gt;u2 -->
<g id="edge5" class="edge"><title>u4&#45;&gt;u2</title>
<path fill="none" stroke="black" d="M412.381,-95.6966C412.381,-87.9827 412.381,-78.7125 412.381,-70.1124"/>
<polygon fill="black" stroke="black" points="415.881,-70.1043 412.381,-60.1043 408.881,-70.1044 415.881,-70.1043"/>
</g>
<!-- u6 -->
<g id="node7" class="node"><title>u6</title>
<ellipse fill="#bbbbff" stroke="black" stroke-width="0" cx="559.381" cy="-42" rx="37.0935" ry="18"/>
<text text-anchor="middle" x="559.381" y="-38.3" font-family="Times,serif" font-size="14.00">Verdict</text>
</g>
<!-- u4&#45;&gt;u6 -->
<g id="edge6" class="edge"><title>u4&#45;&gt;u6</title>
<path fill="none" stroke="black" d="M442.484,-98.6655C466.318,-87.3159 499.638,-71.4492 524.609,-59.5581"/>
<polygon fill="black" stroke="black" points="526.21,-62.6725 533.734,-55.2131 523.2,-56.3525 526.21,-62.6725"/>
</g>
<!-- u5&#45;&gt;u2 -->
<g id="edge7" class="edge"><title>u5&#45;&gt;u2</title>
<path fill="none" stroke="black" d="M248.199,-99.3371C284.871,-86.7537 338.883,-68.2199 374.821,-55.8883"/>
<polygon fill="black" stroke="black" points="376.126,-59.1409 384.449,-52.5847 373.854,-52.5199 376.126,-59.1409"/>
</g>
<!-- u7&#45;&gt;u2 -->
<g id="edge8" class="edge"><title>u7&#45;&gt;u2</title>
<path fill="none" stroke="black" d="M550.673,-100.967C522.23,-89.0445 478.602,-70.757 447.972,-57.9181"/>
<polygon fill="black" stroke="black" points="449.095,-54.594 438.52,-53.9561 446.389,-61.0498 449.095,-54.594"/>
</g>
<!-- u7&#45;&gt;u6 -->
<g id="edge9" class="edge"><title>u7&#45;&gt;u6</title>
<path fill="none" stroke="black" d="M574.54,-96.055C572.313,-88.2609 569.616,-78.8219 567.118,-70.0789"/>
<polygon fill="black" stroke="black" points="570.43,-68.929 564.317,-60.2753 563.699,-70.8521 570.43,-68.929"/>
</g>
<!-- u1 -->
<g id="node9" class="node"><title>u1</title>
<ellipse fill="#ffbbbb" stroke="black" stroke-width="0" cx="412.381" cy="-330" rx="65.7887" ry="18"/>
<text text-anchor="middle" x="412.381" y="-326.3" font-family="Times,serif" font-size="14.00">ConsoleRunner</text>
</g>
<!-- u1&#45;&gt;u8 -->
<g id="edge1" class="edge"><title>u1&#45;&gt;u8</title>
<path fill="none" stroke="black" d="M412.381,-311.697C412.381,-303.983 412.381,-294.712 412.381,-286.112"/>
<polygon fill="black" stroke="black" points="415.881,-286.104 412.381,-276.104 408.881,-286.104 415.881,-286.104"/>
</g>
</g>
</svg>
